<?xml version="1.0" encoding="iso-8859-1"?>
<!-- Generator: Adobe Illustrator 19.0.0, SVG Export Plug-In . SVG Version: 6.00 Build 0)  -->
<svg version="1.1" id="Capa_1" xmlns="http://www.w3.org/2000/svg" xmlns:xlink="http://www.w3.org/1999/xlink" x="0px" y="0px"
	 viewBox="0 0 512 512" style="enable-background:new 0 0 512 512;" xml:space="preserve">
<circle style="fill:#FFDC00;" cx="256" cy="256" r="256"/>
<path style="fill:#FFC000;" d="M511.661,269.27l-24.717-24.718l-430.61,93.114l172.95,172.95C238.065,511.527,246.977,512,256,512
	C392.934,512,504.756,404.487,511.661,269.27z"/>
<path style="fill:#C0C0C0;" d="M46.433,308.157l9.901,29.51h404.514c0,0,40.24-16.273,40.24-61.47L46.433,308.157z"/>
<path style="fill:#758F9B;" d="M216,296.237v41.429h244.847c0,0,40.24-16.273,40.24-61.47L216,296.237z"/>
<path style="fill:#FFFFFF;" d="M46.433,308.157c0,0-35.075-39.498-17.537-93.338s36.6-93.49,36.6-93.49s33.55,48.037,129.624,0
	c0,0,249.335,109.036,276.022,115.136c25.512,5.831,47.541,43.733,9.461,68.376c-3.349,2.167-7.262,3.316-11.252,3.316
	L46.433,308.157L46.433,308.157z"/>
<path style="fill:#E0E0E0;" d="M471.141,236.465C449.184,231.447,276.525,156.753,216,130.429v177.728h253.351
	c3.989,0,7.902-1.148,11.251-3.316C518.682,280.198,496.653,242.297,471.141,236.465z"/>
<path style="fill:#00BAFF;" d="M471.141,236.465c-10.596-2.422-56.294-21.073-107.548-42.682l-29.721,29.721
	c-14.29,14.29-4.169,38.722,16.039,38.722h149.367C494.955,249.566,483.455,239.28,471.141,236.465z"/>
<path style="fill:#C0C0C0;" d="M195.119,121.329c-96.074,48.037-129.624,0-129.624,0s-19.062,39.65-36.6,93.49
	c-5.925,18.191-5.841,34.741-3.136,48.688h79.019c19.675,0,38.544-7.816,52.457-21.729l95.443-95.443
	C218.958,131.754,195.119,121.329,195.119,121.329z"/>
<path style="fill:#758F9B;" d="M216,130.429v52.583l36.677-36.677C238.287,140.112,225.707,134.651,216,130.429z"/>
<path style="fill:#008CC3;" d="M40.721,180.948c-3.863,10.381-7.883,21.766-11.826,33.871
	c-17.537,53.841,17.537,93.338,17.537,93.338h90.998C129.888,227.985,76.255,194.464,40.721,180.948z"/>
<g>
	<path style="fill:#FF9451;" d="M271.763,185.396c-2.473,0-4.95-0.912-6.885-2.75c-4.005-3.804-4.167-10.133-0.364-14.137l15-15.792
		c3.803-4.005,10.133-4.168,14.138-0.364s4.167,10.133,0.364,14.137l-15,15.792C277.05,184.353,274.408,185.396,271.763,185.396z"/>
	<path style="fill:#FF9451;" d="M244.998,173.396c-2.473,0-4.95-0.912-6.885-2.75c-4.005-3.804-4.167-10.133-0.364-14.137l15-15.792
		c3.803-4.005,10.133-4.168,14.138-0.364c4.005,3.804,4.167,10.133,0.364,14.137l-15,15.792
		C250.285,172.353,247.644,173.396,244.998,173.396z"/>
	<path style="fill:#FF9451;" d="M299.59,198.125c-2.473,0-4.95-0.912-6.885-2.75c-4.005-3.804-4.167-10.133-0.364-14.137l15-15.792
		c3.803-4.005,10.133-4.168,14.138-0.364s4.167,10.133,0.364,14.137l-15,15.792C304.877,197.082,302.235,198.125,299.59,198.125z"/>
	<path style="fill:#FF9451;" d="M327.998,210.396c-2.473,0-4.95-0.912-6.885-2.75c-4.005-3.804-4.167-10.133-0.364-14.137l15-15.792
		c3.803-4.005,10.133-4.168,14.138-0.364s4.167,10.133,0.364,14.137l-15,15.792C333.285,209.353,330.644,210.396,327.998,210.396z"
		/>
</g>
<g>
</g>
<g>
</g>
<g>
</g>
<g>
</g>
<g>
</g>
<g>
</g>
<g>
</g>
<g>
</g>
<g>
</g>
<g>
</g>
<g>
</g>
<g>
</g>
<g>
</g>
<g>
</g>
<g>
</g>
</svg>
